<?xml version="1.0" standalone="yes"?>

<svg version="1.1" viewBox="0.0 0.0 960.0 720.0" fill="none" stroke="none" stroke-linecap="square" stroke-miterlimit="10" xmlns="http://www.w3.org/2000/svg" xmlns:xlink="http://www.w3.org/1999/xlink"><clipPath id="p.0"><path d="m0 0l960.0 0l0 720.0l-960.0 0l0 -720.0z" clip-rule="nonzero"></path></clipPath><g clip-path="url(#p.0)"><path fill="#000000" fill-opacity="0.0" d="m0 0l960.0 0l0 720.0l-960.0 0z" fill-rule="nonzero"></path><path fill="#cccccc" d="m266.55905 677.21783l0 0c0 -17.673096 14.326904 -32.0 32.0 -32.0l0 0c8.486938 0 16.626251 3.37146 22.62741 9.37262c6.0011597 6.0011597 9.372589 14.140442 9.372589 22.62738l0 0c0 17.673096 -14.326874 32.0 -32.0 32.0l0 0c-17.673096 0 -32.0 -14.326904 -32.0 -32.0z" fill-rule="nonzero"></path><path fill="#000000" fill-opacity="0.0" d="m275.93164 654.59045l45.25482 45.25482m0 -45.25482l-45.25482 45.25482" fill-rule="nonzero"></path><path stroke="#000000" stroke-width="2.0" stroke-linejoin="round" stroke-linecap="butt" d="m275.93164 654.59045l45.25482 45.25482m0 -45.25482l-45.25482 45.25482" fill-rule="nonzero"></path><path fill="#000000" fill-opacity="0.0" d="m266.55905 677.21783l0 0c0 -17.673096 14.326904 -32.0 32.0 -32.0l0 0c8.486938 0 16.626251 3.37146 22.62741 9.37262c6.0011597 6.0011597 9.372589 14.140442 9.372589 22.62738l0 0c0 17.673096 -14.326874 32.0 -32.0 32.0l0 0c-17.673096 0 -32.0 -14.326904 -32.0 -32.0z" fill-rule="nonzero"></path><path stroke="#000000" stroke-width="2.0" stroke-linejoin="round" stroke-linecap="butt" d="m266.55905 677.21783l0 0c0 -17.673096 14.326904 -32.0 32.0 -32.0l0 0c8.486938 0 16.626251 3.37146 22.62741 9.37262c6.0011597 6.0011597 9.372589 14.140442 9.372589 22.62738l0 0c0 17.673096 -14.326874 32.0 -32.0 32.0l0 0c-17.673096 0 -32.0 -14.326904 -32.0 -32.0z" fill-rule="nonzero"></path><path fill="#cfe2f3" d="m266.55905 42.782154l0 0c0 -17.673115 14.326904 -32.0 32.0 -32.0l0 0c8.486938 0 16.626251 3.371419 22.62741 9.372583c6.0011597 6.0011635 9.372589 14.140488 9.372589 22.627419l0 0c0 17.673111 -14.326874 31.999996 -32.0 31.999996l0 0c-17.673096 0 -32.0 -14.326885 -32.0 -31.999996z" fill-rule="nonzero"></path><path fill="#000000" fill-opacity="0.0" d="m298.55905 10.782152l0 64.0m-32.0 -31.999996l64.0 0" fill-rule="nonzero"></path><path stroke="#000000" stroke-width="2.0" stroke-linejoin="round" stroke-linecap="butt" d="m298.55905 10.782152l0 64.0m-32.0 -31.999996l64.0 0" fill-rule="nonzero"></path><path fill="#000000" fill-opacity="0.0" d="m266.55905 42.782154l0 0c0 -17.673115 14.326904 -32.0 32.0 -32.0l0 0c8.486938 0 16.626251 3.371419 22.62741 9.372583c6.0011597 6.0011635 9.372589 14.140488 9.372589 22.627419l0 0c0 17.673111 -14.326874 31.999996 -32.0 31.999996l0 0c-17.673096 0 -32.0 -14.326885 -32.0 -31.999996z" fill-rule="nonzero"></path><path stroke="#000000" stroke-width="2.0" stroke-linejoin="round" stroke-linecap="butt" d="m266.55905 42.782154l0 0c0 -17.673115 14.326904 -32.0 32.0 -32.0l0 0c8.486938 0 16.626251 3.371419 22.62741 9.372583c6.0011597 6.0011635 9.372589 14.140488 9.372589 22.627419l0 0c0 17.673111 -14.326874 31.999996 -32.0 31.999996l0 0c-17.673096 0 -32.0 -14.326885 -32.0 -31.999996z" fill-rule="nonzero"></path><path fill="#ffff00" d="m186.69948 280.11285l0 -42.0c0 -23.195953 18.804031 -42.0 42.0 -42.0l29.999985 0l0 -12.0l24.0 24.0l-24.0 24.0l0 -12.0l-29.999985 0l0 0c-9.941132 0 -18.0 8.058884 -18.0 18.0l0 42.0z" fill-rule="nonzero"></path><path stroke="#000000" stroke-width="2.0" stroke-linejoin="round" stroke-linecap="butt" d="m186.69948 280.11285l0 -42.0c0 -23.195953 18.804031 -42.0 42.0 -42.0l29.999985 0l0 -12.0l24.0 24.0l-24.0 24.0l0 -12.0l-29.999985 0l0 0c-9.941132 0 -18.0 8.058884 -18.0 18.0l0 42.0z" fill-rule="nonzero"></path><path fill="#ffff00" d="m322.8517 195.03674l42.0 0c23.195953 0 42.0 18.804047 42.0 42.0l0 30.0l12.0 0l-24.0 24.0l-24.0 -24.0l12.0 0l0 -30.0l0 0c0 -9.941116 -8.058868 -18.0 -18.0 -18.0l-42.0 0z" fill-rule="nonzero"></path><path stroke="#000000" stroke-width="2.0" stroke-linejoin="round" stroke-linecap="butt" d="m322.8517 195.03674l42.0 0c23.195953 0 42.0 18.804047 42.0 42.0l0 30.0l12.0 0l-24.0 24.0l-24.0 -24.0l12.0 0l0 -30.0l0 0c0 -9.941116 -8.058868 -18.0 -18.0 -18.0l-42.0 0z" fill-rule="nonzero"></path><path fill="#ffff00" d="m407.542 324.81628l0 42.0c0 23.195953 -18.804047 42.0 -42.0 42.0l-30.0 0l0 12.0l-24.0 -24.0l24.0 -24.0l0 12.0l30.0 0l0 0c9.941132 0 18.0 -8.058899 18.0 -18.0l0 -42.0z" fill-rule="nonzero"></path><path stroke="#000000" stroke-width="2.0" stroke-linejoin="round" stroke-linecap="butt" d="m407.542 324.81628l0 42.0c0 23.195953 -18.804047 42.0 -42.0 42.0l-30.0 0l0 12.0l-24.0 -24.0l24.0 -24.0l0 12.0l30.0 0l0 0c9.941132 0 18.0 -8.058899 18.0 -18.0l0 -42.0z" fill-rule="nonzero"></path><path fill="#ffff00" d="m274.26642 407.09186l-42.000015 0c-23.195953 0 -42.0 -18.804047 -42.0 -42.0l0 -30.0l-12.0 0l24.0 -24.0l24.0 24.0l-12.0 0l0 30.0l0 0c0 9.941132 8.058868 18.0 18.0 18.0l42.000015 0z" fill-rule="nonzero"></path><path stroke="#000000" stroke-width="2.0" stroke-linejoin="round" stroke-linecap="butt" d="m274.26642 407.09186l-42.000015 0c-23.195953 0 -42.0 -18.804047 -42.0 -42.0l0 -30.0l-12.0 0l24.0 -24.0l24.0 24.0l-12.0 0l0 30.0l0 0c0 9.941132 8.058868 18.0 18.0 18.0l42.000015 0z" fill-rule="nonzero"></path><path fill="#ff0000" d="m169.62204 560.0945l141.95276 0l0 36.37793l-141.95276 0z" fill-rule="nonzero"></path><path stroke="#000000" stroke-width="2.0" stroke-linejoin="round" stroke-linecap="butt" d="m169.62204 560.0945l141.95276 0l0 36.37793l-141.95276 0z" fill-rule="nonzero"></path><path fill="#6aa84f" d="m311.5433 491.937l133.29135 0l0 36.37793l-133.29135 0z" fill-rule="nonzero"></path><path stroke="#000000" stroke-width="2.0" stroke-linejoin="round" stroke-linecap="butt" d="m311.5433 491.937l133.29135 0l0 36.37793l-133.29135 0z" fill-rule="nonzero"></path><path fill="#000000" fill-opacity="0.0" d="m246.08923 269.00787l136.94489 0l0 64.0l-136.94489 0z" fill-rule="nonzero"></path><path fill="#000000" d="m273.68298 296.49225q-1.671875 5.359375 -3.390625 9.921875q-1.71875 4.5625 -3.4375 8.875l-3.890625 0q-2.109375 -6.125 -3.734375 -12.921875q-1.625 -6.796875 -3.015625 -14.796875l4.078125 0q0.5625 3.125 1.15625 6.25q0.59375 3.109375 1.234375 6.046875q0.640625 2.9375 1.28125 5.625q0.640625 2.671875 1.328125 4.953125q1.59375 -4.203125 3.390625 -9.21875q1.8125 -5.015625 3.359375 -10.375l3.359375 0q1.5625 5.359375 3.40625 10.375q1.84375 5.015625 3.4375 9.21875q0.640625 -2.234375 1.28125 -4.90625q0.640625 -2.6875 1.25 -5.625q0.625 -2.9375 1.21875 -6.078125q0.609375 -3.140625 1.171875 -6.265625l3.96875 0q-1.453125 8.0 -3.078125 14.796875q-1.609375 6.796875 -3.6875 12.921875l-3.875 0q-1.765625 -4.3125 -3.453125 -8.875q-1.671875 -4.5625 -3.359375 -9.921875zm40.128723 8.390625q0 2.484375 -0.71875 4.484375q-0.71875 2.0 -2.03125 3.4375q-1.296875 1.4375 -3.09375 2.21875q-1.796875 0.78125 -3.921875 0.78125q-2.109375 0 -3.921875 -0.78125q-1.796875 -0.78125 -3.09375 -2.21875q-1.296875 -1.4375 -2.015625 -3.4375q-0.71875 -2.0 -0.71875 -4.484375q0 -2.4375 0.71875 -4.453125q0.71875 -2.015625 2.015625 -3.453125q1.296875 -1.453125 3.09375 -2.21875q1.8125 -0.78125 3.921875 -0.78125q2.125 0 3.921875 0.78125q1.796875 0.765625 3.09375 2.21875q1.3125 1.4375 2.03125 3.453125q0.71875 2.015625 0.71875 4.453125zm-3.875 0q0 -3.515625 -1.59375 -5.578125q-1.578125 -2.0625 -4.296875 -2.0625q-2.71875 0 -4.296875 2.0625q-1.578125 2.0625 -1.578125 5.578125q0 3.53125 1.578125 5.59375q1.578125 2.046875 4.296875 2.046875q2.71875 0 4.296875 -2.046875q1.59375 -2.0625 1.59375 -5.59375zm16.787476 -10.828125q0.484375 0 1.09375 0.0625q0.625 0.046875 1.21875 0.15625q0.609375 0.09375 1.109375 0.203125q0.5 0.09375 0.75 0.171875l-0.640625 3.234375q-0.453125 -0.15625 -1.46875 -0.375q-1.015625 -0.21875 -2.625 -0.21875q-1.03125 0 -2.0625 0.21875q-1.015625 0.21875 -1.328125 0.296875l0 17.484375l-3.71875 0l0 -19.921875q1.3125 -0.484375 3.265625 -0.890625q1.96875 -0.421875 4.40625 -0.421875zm15.283722 9.796875q1.203125 0.921875 2.53125 2.28125q1.34375 1.359375 2.640625 2.9375q1.3125 1.578125 2.46875 3.203125q1.15625 1.609375 1.953125 3.015625l-4.359375 0q-0.828125 -1.40625 -1.9375 -2.859375q-1.09375 -1.453125 -2.296875 -2.796875q-1.203125 -1.34375 -2.4375 -2.453125q-1.234375 -1.125 -2.359375 -1.890625l0 10.0l-3.71875 0l0 -30.40625l3.71875 -0.640625l0 18.96875q0.953125 -0.96875 2.109375 -2.125q1.171875 -1.15625 2.28125 -2.359375q1.125 -1.203125 2.125 -2.296875q1.0 -1.09375 1.71875 -1.9375l4.359375 0q-0.921875 1.0 -2.0 2.203125q-1.078125 1.1875 -2.234375 2.421875q-1.15625 1.21875 -2.34375 2.4375q-1.171875 1.21875 -2.21875 2.296875z" fill-rule="nonzero"></path><path fill="#6aa84f" d="m359.82153 460.81628l12.0 0l0 -40.0l24.0 0l0 40.0l12.0 0l-24.0 24.0z" fill-rule="nonzero"></path><path stroke="#000000" stroke-width="2.0" stroke-linejoin="round" stroke-linecap="butt" d="m359.82153 460.81628l12.0 0l0 -40.0l24.0 0l0 40.0l12.0 0l-24.0 24.0z" fill-rule="nonzero"></path><path fill="#ff0000" d="m220.91339 530.2901l12.0 0l0 -108.72443l24.0 0l0 108.72443l12.0 0l-24.0 24.0z" fill-rule="nonzero"></path><path stroke="#000000" stroke-width="2.0" stroke-linejoin="round" stroke-linecap="butt" d="m220.91339 530.2901l12.0 0l0 -108.72443l24.0 0l0 108.72443l12.0 0l-24.0 24.0z" fill-rule="nonzero"></path><path fill="#ffff00" d="m274.55905 158.90945l12.0 0l0 -72.00001l24.0 0l0 72.00001l12.0 0l-24.0 24.0z" fill-rule="nonzero"></path><path stroke="#000000" stroke-width="2.0" stroke-linejoin="round" stroke-linecap="butt" d="m274.55905 158.90945l12.0 0l0 -72.00001l24.0 0l0 72.00001l12.0 0l-24.0 24.0z" fill-rule="nonzero"></path><path fill="#cccccc" d="m233.94489 603.3412l0 79.19293l22.409454 0l0 -5.602356l11.204712 11.204712l-11.204712 11.204712l0 -5.602356l-33.61418 0l0 -90.397644z" fill-rule="nonzero"></path><path stroke="#000000" stroke-width="2.0" stroke-linejoin="round" stroke-linecap="butt" d="m233.94489 603.3412l0 79.19293l22.409454 0l0 -5.602356l11.204712 11.204712l-11.204712 11.204712l0 -5.602356l-33.61418 0l0 -90.397644z" fill-rule="nonzero"></path><path fill="#cccccc" d="m374.32547 533.7087l0 143.01965l-30.157501 0l0 -7.5393677l-15.078735 15.078735l15.078735 15.078735l0 -7.5393677l45.236237 0l0 -158.09839z" fill-rule="nonzero"></path><path stroke="#000000" stroke-width="2.0" stroke-linejoin="round" stroke-linecap="butt" d="m374.32547 533.7087l0 143.01965l-30.157501 0l0 -7.5393677l-15.078735 15.078735l15.078735 15.078735l0 -7.5393677l45.236237 0l0 -158.09839z" fill-rule="nonzero"></path><path fill="#cfe2f3" d="m335.66666 25.853018l448.37796 0l14.897644 14.897638l-14.897644 14.897636l-448.37796 0l14.897644 -14.897636z" fill-rule="nonzero"></path><path stroke="#000000" stroke-width="2.0" stroke-linejoin="round" stroke-linecap="butt" d="m335.66666 25.853018l448.37796 0l14.897644 14.897638l-14.897644 14.897636l-448.37796 0l14.897644 -14.897636z" fill-rule="nonzero"></path><path fill="#ffff00" d="m418.85303 282.92914l365.19684 0l14.897644 14.897644l-14.897644 14.897614l-365.19684 0l14.897644 -14.897614z" fill-rule="nonzero"></path><path stroke="#000000" stroke-width="2.0" stroke-linejoin="round" stroke-linecap="butt" d="m418.85303 282.92914l365.19684 0l14.897644 14.897644l-14.897644 14.897614l-365.19684 0l14.897644 -14.897614z" fill-rule="nonzero"></path><path fill="#6aa84f" d="m453.99738 491.937l326.75592 0l18.188965 18.188965l-18.188965 18.188965l-326.75592 0l18.188965 -18.188965z" fill-rule="nonzero"></path><path stroke="#000000" stroke-width="2.0" stroke-linejoin="round" stroke-linecap="butt" d="m453.99738 491.937l326.75592 0l18.188965 18.188965l-18.188965 18.188965l-326.75592 0l18.188965 -18.188965z" fill-rule="nonzero"></path><path fill="#ff0000" d="m322.85303 560.0945l457.90552 0l18.188965 18.188965l-18.188965 18.188965l-457.90552 0l18.188965 -18.188965z" fill-rule="nonzero"></path><path stroke="#000000" stroke-width="2.0" stroke-linejoin="round" stroke-linecap="butt" d="m322.85303 560.0945l457.90552 0l18.188965 18.188965l-18.188965 18.188965l-457.90552 0l18.188965 -18.188965z" fill-rule="nonzero"></path><path fill="#cccccc" d="m398.3596 659.1391l385.70078 0l14.897644 14.897644l-14.897644 14.897644l-385.70078 0l14.897644 -14.897644z" fill-rule="nonzero"></path><path stroke="#000000" stroke-width="2.0" stroke-linejoin="round" stroke-linecap="butt" d="m398.3596 659.1391l385.70078 0l14.897644 14.897644l-14.897644 14.897644l-385.70078 0l14.897644 -14.897644z" fill-rule="nonzero"></path><path fill="#000000" fill-opacity="0.0" d="m543.8898 269.00787l213.85828 0l0 48.0l-213.85828 0z" fill-rule="nonzero"></path><path fill="#000000" d="m554.5148 299.55475q0 -2.21875 0.640625 -3.859375q0.640625 -1.65625 1.703125 -2.734375q1.0625 -1.09375 2.4375 -1.640625q1.375 -0.546875 2.8125 -0.546875q3.359375 0 5.140625 2.109375q1.796875 2.09375 1.796875 6.375q0 0.1875 0 0.5q0 0.296875 -0.03125 0.5625l-11.390625 0q0.1875 2.59375 1.5 3.9375q1.3125 1.34375 4.109375 1.34375q1.5625 0 2.625 -0.265625q1.078125 -0.28125 1.625 -0.546875l0.421875 2.5q-0.546875 0.296875 -1.90625 0.609375q-1.359375 0.328125 -3.09375 0.328125q-2.171875 0 -3.765625 -0.65625q-1.578125 -0.65625 -2.609375 -1.8125q-1.015625 -1.15625 -1.515625 -2.734375q-0.5 -1.59375 -0.5 -3.46875zm11.4375 -1.640625q0.03125 -2.015625 -1.015625 -3.3125q-1.03125 -1.296875 -2.859375 -1.296875q-1.03125 0 -1.8125 0.40625q-0.78125 0.390625 -1.328125 1.03125q-0.546875 0.640625 -0.859375 1.484375q-0.296875 0.828125 -0.390625 1.6875l8.265625 0zm13.0130005 7.78125q1.0625 0 1.875 -0.046875q0.8125 -0.046875 1.359375 -0.1875l0 -4.953125q-0.3125 -0.15625 -1.046875 -0.265625q-0.71875 -0.125 -1.734375 -0.125q-0.671875 0 -1.421875 0.109375q-0.75 0.09375 -1.375 0.40625q-0.625 0.296875 -1.046875 0.828125q-0.40625 0.515625 -0.40625 1.390625q0 1.59375 1.015625 2.21875q1.03125 0.625 2.78125 0.625zm-0.25 -14.921875q1.796875 0 3.015625 0.46875q1.234375 0.46875 1.984375 1.3125q0.765625 0.84375 1.078125 2.015625q0.328125 1.171875 0.328125 2.578125l0 10.40625q-0.390625 0.0625 -1.078125 0.171875q-0.6875 0.109375 -1.5625 0.203125q-0.859375 0.09375 -1.875 0.171875q-1.0 0.09375 -1.984375 0.09375q-1.40625 0 -2.59375 -0.296875q-1.1875 -0.28125 -2.046875 -0.90625q-0.859375 -0.625 -1.34375 -1.640625q-0.484375 -1.03125 -0.484375 -2.46875q0 -1.390625 0.5625 -2.375q0.5625 -0.984375 1.515625 -1.59375q0.96875 -0.609375 2.234375 -0.890625q1.28125 -0.296875 2.703125 -0.296875q0.4375 0 0.921875 0.046875q0.484375 0.046875 0.90625 0.125q0.4375 0.078125 0.75 0.140625q0.328125 0.0625 0.453125 0.09375l0 -0.828125q0 -0.734375 -0.15625 -1.453125q-0.15625 -0.71875 -0.578125 -1.28125q-0.421875 -0.5625 -1.140625 -0.890625q-0.71875 -0.34375 -1.859375 -0.34375q-1.484375 0 -2.59375 0.21875q-1.09375 0.203125 -1.640625 0.421875l-0.34375 -2.453125q0.578125 -0.265625 1.921875 -0.5q1.34375 -0.25 2.90625 -0.25zm18.563416 17.453125q-2.015625 0 -3.546875 -0.640625q-1.515625 -0.640625 -2.5625 -1.796875q-1.03125 -1.15625 -1.546875 -2.734375q-0.515625 -1.59375 -0.515625 -3.5q0 -1.921875 0.5625 -3.515625q0.5625 -1.609375 1.578125 -2.78125q1.03125 -1.171875 2.515625 -1.828125q1.5 -0.65625 3.3125 -0.65625q1.125 0 2.234375 0.203125q1.125 0.1875 2.15625 0.609375l-0.671875 2.515625q-0.671875 -0.3125 -1.5625 -0.5q-0.875 -0.203125 -1.859375 -0.203125q-2.5 0 -3.828125 1.578125q-1.328125 1.5625 -1.328125 4.578125q0 1.34375 0.296875 2.46875q0.3125 1.109375 0.96875 1.90625q0.65625 0.796875 1.671875 1.234375q1.03125 0.4375 2.5 0.4375q1.1875 0 2.140625 -0.21875q0.96875 -0.234375 1.515625 -0.484375l0.40625 2.484375q-0.25 0.171875 -0.734375 0.3125q-0.46875 0.140625 -1.078125 0.25q-0.609375 0.109375 -1.296875 0.1875q-0.6875 0.09375 -1.328125 0.09375zm7.645691 -0.390625l0 -24.3125l2.96875 -0.515625l0 8.515625q0.84375 -0.328125 1.78125 -0.5q0.9375 -0.171875 1.875 -0.171875q1.984375 0 3.296875 0.5625q1.3125 0.546875 2.09375 1.5625q0.78125 1.0 1.09375 2.40625q0.328125 1.40625 0.328125 3.109375l0 9.34375l-2.96875 0l0 -8.703125q0 -1.53125 -0.21875 -2.625q-0.203125 -1.09375 -0.6875 -1.765625q-0.484375 -0.671875 -1.28125 -0.96875q-0.796875 -0.3125 -1.984375 -0.3125q-0.46875 0 -0.984375 0.078125q-0.515625 0.0625 -0.984375 0.140625q-0.453125 0.078125 -0.828125 0.171875q-0.359375 0.09375 -0.53125 0.15625l0 13.828125l-2.96875 0zm24.726562 -8.28125q0 -2.21875 0.640625 -3.859375q0.640625 -1.65625 1.703125 -2.734375q1.0625 -1.09375 2.4375 -1.640625q1.375 -0.546875 2.8125 -0.546875q3.359375 0 5.140625 2.109375q1.796875 2.09375 1.796875 6.375q0 0.1875 0 0.5q0 0.296875 -0.03125 0.5625l-11.390625 0q0.1875 2.59375 1.5 3.9375q1.3125 1.34375 4.109375 1.34375q1.5625 0 2.625 -0.265625q1.078125 -0.28125 1.625 -0.546875l0.421875 2.5q-0.546875 0.296875 -1.90625 0.609375q-1.359375 0.328125 -3.09375 0.328125q-2.171875 0 -3.765625 -0.65625q-1.578125 -0.65625 -2.609375 -1.8125q-1.015625 -1.15625 -1.515625 -2.734375q-0.5 -1.59375 -0.5 -3.46875zm11.4375 -1.640625q0.03125 -2.015625 -1.015625 -3.3125q-1.03125 -1.296875 -2.859375 -1.296875q-1.03125 0 -1.8125 0.40625q-0.78125 0.390625 -1.328125 1.03125q-0.546875 0.640625 -0.859375 1.484375q-0.296875 0.828125 -0.390625 1.6875l8.265625 0zm20.372375 -6.71875q-1.25 4.671875 -2.9375 8.96875q-1.671875 4.28125 -3.234375 7.671875l-2.6875 0q-1.5625 -3.390625 -3.25 -7.671875q-1.671875 -4.296875 -2.921875 -8.96875l3.203125 0q0.375 1.5625 0.90625 3.34375q0.53125 1.78125 1.125 3.53125q0.59375 1.734375 1.1875 3.375q0.609375 1.625 1.15625 2.90625q0.546875 -1.28125 1.15625 -2.90625q0.609375 -1.640625 1.203125 -3.375q0.59375 -1.75 1.109375 -3.53125q0.53125 -1.78125 0.921875 -3.34375l3.0625 0zm2.1421509 8.359375q0 -2.21875 0.640625 -3.859375q0.640625 -1.65625 1.703125 -2.734375q1.0625 -1.09375 2.4375 -1.640625q1.375 -0.546875 2.8125 -0.546875q3.359375 0 5.140625 2.109375q1.796875 2.09375 1.796875 6.375q0 0.1875 0 0.5q0 0.296875 -0.03125 0.5625l-11.390625 0q0.1875 2.59375 1.5 3.9375q1.3125 1.34375 4.109375 1.34375q1.5625 0 2.625 -0.265625q1.078125 -0.28125 1.625 -0.546875l0.421875 2.5q-0.546875 0.296875 -1.90625 0.609375q-1.359375 0.328125 -3.09375 0.328125q-2.171875 0 -3.765625 -0.65625q-1.578125 -0.65625 -2.609375 -1.8125q-1.015625 -1.15625 -1.515625 -2.734375q-0.5 -1.59375 -0.5 -3.46875zm11.4375 -1.640625q0.03125 -2.015625 -1.015625 -3.3125q-1.03125 -1.296875 -2.859375 -1.296875q-1.03125 0 -1.8125 0.40625q-0.78125 0.390625 -1.328125 1.03125q-0.546875 0.640625 -0.859375 1.484375q-0.296875 0.828125 -0.390625 1.6875l8.265625 0zm7.3880615 -6.234375q1.015625 -0.265625 2.703125 -0.546875q1.703125 -0.28125 3.921875 -0.28125q1.984375 0 3.296875 0.5625q1.3125 0.546875 2.09375 1.5625q0.78125 1.0 1.09375 2.40625q0.328125 1.40625 0.328125 3.109375l0 9.34375l-2.96875 0l0 -8.703125q0 -1.53125 -0.21875 -2.625q-0.203125 -1.09375 -0.6875 -1.765625q-0.484375 -0.671875 -1.28125 -0.96875q-0.796875 -0.3125 -1.984375 -0.3125q-0.46875 0 -0.984375 0.046875q-0.515625 0.03125 -0.984375 0.078125q-0.453125 0.046875 -0.828125 0.109375q-0.359375 0.0625 -0.53125 0.09375l0 14.046875l-2.96875 0l0 -16.15625zm21.149292 -0.484375l6.296875 0l0 2.5l-6.296875 0l0 7.671875q0 1.25 0.1875 2.078125q0.203125 0.8125 0.578125 1.28125q0.390625 0.453125 0.953125 0.65625q0.578125 0.1875 1.359375 0.1875q1.34375 0 2.15625 -0.296875q0.8125 -0.3125 1.140625 -0.453125l0.5625 2.46875q-0.4375 0.234375 -1.5625 0.5625q-1.125 0.34375 -2.5625 0.34375q-1.6875 0 -2.796875 -0.4375q-1.109375 -0.4375 -1.78125 -1.296875q-0.671875 -0.859375 -0.9375 -2.125q-0.265625 -1.265625 -0.265625 -2.9375l0 -14.84375l2.96875 -0.515625l0 5.15625z" fill-rule="nonzero"></path><path fill="#000000" fill-opacity="0.0" d="m550.0184 10.076116l222.96063 0l0 48.0l-222.96063 0z" fill-rule="nonzero"></path><path fill="#000000" d="m564.5496 32.99799q0.546875 -0.34375 1.640625 -0.734375q1.109375 -0.390625 2.5625 -0.390625q1.78125 0 3.171875 0.640625q1.390625 0.640625 2.34375 1.796875q0.96875 1.15625 1.46875 2.765625q0.5 1.59375 0.5 3.515625q0 2.015625 -0.59375 3.625q-0.59375 1.609375 -1.6875 2.734375q-1.078125 1.125 -2.625 1.734375q-1.53125 0.609375 -3.453125 0.609375q-2.078125 0 -3.6875 -0.296875q-1.59375 -0.28125 -2.609375 -0.578125l0 -23.828125l2.96875 -0.515625l0 8.921875zm0 13.3125q0.453125 0.125 1.265625 0.25q0.8125 0.109375 2.03125 0.109375q2.40625 0 3.84375 -1.578125q1.4375 -1.59375 1.4375 -4.5q0 -1.28125 -0.265625 -2.40625q-0.25 -1.125 -0.828125 -1.9375q-0.5625 -0.8125 -1.484375 -1.28125q-0.90625 -0.46875 -2.1875 -0.46875q-1.21875 0 -2.25 0.421875q-1.015625 0.421875 -1.5625 0.859375l0 10.53125zm14.941772 -5.6875q0 -2.21875 0.640625 -3.859375q0.640625 -1.65625 1.703125 -2.734375q1.0625 -1.09375 2.4375 -1.640625q1.375 -0.546875 2.8125 -0.546875q3.359375 0 5.140625 2.109375q1.796875 2.09375 1.796875 6.375q0 0.1875 0 0.5q0 0.296875 -0.03125 0.5625l-11.390625 0q0.1875 2.59375 1.5 3.9375q1.3125 1.34375 4.109375 1.34375q1.5625 0 2.625 -0.265625q1.078125 -0.28125 1.625 -0.546875l0.421875 2.5q-0.546875 0.296875 -1.90625 0.609375q-1.359375 0.328125 -3.09375 0.328125q-2.171875 0 -3.765625 -0.65625q-1.578125 -0.65625 -2.609375 -1.8125q-1.015625 -1.15625 -1.515625 -2.734375q-0.5 -1.59375 -0.5 -3.46875zm11.4375 -1.640625q0.03125 -2.015625 -1.015625 -3.3125q-1.03125 -1.296875 -2.859375 -1.296875q-1.03125 0 -1.8125 0.40625q-0.78125 0.390625 -1.328125 1.03125q-0.546875 0.640625 -0.859375 1.484375q-0.296875 0.828125 -0.390625 1.6875l8.265625 0zm17.809937 8.265625q-0.375 0.25 -1.484375 0.65625q-1.09375 0.390625 -2.578125 0.390625q-1.5 0 -2.828125 -0.46875q-1.328125 -0.484375 -2.328125 -1.484375q-0.984375 -1.015625 -1.5625 -2.515625q-0.578125 -1.515625 -0.578125 -3.59375q0 -1.828125 0.546875 -3.34375q0.546875 -1.515625 1.578125 -2.625q1.046875 -1.109375 2.546875 -1.71875q1.515625 -0.625 3.40625 -0.625q2.078125 0 3.625 0.296875q1.546875 0.296875 2.609375 0.5625l0 14.84375q0 3.84375 -1.984375 5.5625q-1.984375 1.734375 -6.015625 1.734375q-1.5625 0 -2.96875 -0.265625q-1.390625 -0.25 -2.40625 -0.59375l0.546875 -2.59375q0.890625 0.34375 2.1875 0.609375q1.296875 0.28125 2.703125 0.28125q2.65625 0 3.8125 -1.0625q1.171875 -1.046875 1.171875 -3.34375l0 -0.703125zm-0.03125 -12.359375q-0.4375 -0.125 -1.1875 -0.234375q-0.75 -0.125 -2.03125 -0.125q-2.40625 0 -3.703125 1.578125q-1.296875 1.5625 -1.296875 4.15625q0 1.4375 0.359375 2.46875q0.375 1.015625 1.0 1.6875q0.625 0.671875 1.4375 1.0q0.828125 0.3125 1.6875 0.3125q1.1875 0 2.171875 -0.328125q1.0 -0.34375 1.5625 -0.78125l0 -9.734375zm11.074158 14.015625l-2.96875 0l0 -16.640625l2.96875 0l0 16.640625zm-1.5 -19.640625q-0.796875 0 -1.359375 -0.53125q-0.5625 -0.53125 -0.5625 -1.421875q0 -0.90625 0.5625 -1.421875q0.5625 -0.53125 1.359375 -0.53125q0.796875 0 1.359375 0.53125q0.5625 0.515625 0.5625 1.421875q0 0.890625 -0.5625 1.421875q-0.5625 0.53125 -1.359375 0.53125zm6.6272583 3.484375q1.015625 -0.265625 2.703125 -0.546875q1.703125 -0.28125 3.921875 -0.28125q1.984375 0 3.296875 0.5625q1.3125 0.546875 2.09375 1.5625q0.78125 1.0 1.09375 2.40625q0.328125 1.40625 0.328125 3.109375l0 9.34375l-2.96875 0l0 -8.703125q0 -1.53125 -0.21875 -2.625q-0.203125 -1.09375 -0.6875 -1.765625q-0.484375 -0.671875 -1.28125 -0.96875q-0.796875 -0.3125 -1.984375 -0.3125q-0.46875 0 -0.984375 0.046875q-0.515625 0.03125 -0.984375 0.078125q-0.453125 0.046875 -0.828125 0.109375q-0.359375 0.0625 -0.53125 0.09375l0 14.046875l-2.96875 0l0 -16.15625zm24.82257 7.875q0 -2.21875 0.640625 -3.859375q0.640625 -1.65625 1.703125 -2.734375q1.0625 -1.09375 2.4375 -1.640625q1.375 -0.546875 2.8125 -0.546875q3.359375 0 5.140625 2.109375q1.796875 2.09375 1.796875 6.375q0 0.1875 0 0.5q0 0.296875 -0.03125 0.5625l-11.390625 0q0.1875 2.59375 1.5 3.9375q1.3125 1.34375 4.109375 1.34375q1.5625 0 2.625 -0.265625q1.078125 -0.28125 1.625 -0.546875l0.421875 2.5q-0.546875 0.296875 -1.90625 0.609375q-1.359375 0.328125 -3.09375 0.328125q-2.171875 0 -3.765625 -0.65625q-1.578125 -0.65625 -2.609375 -1.8125q-1.015625 -1.15625 -1.515625 -2.734375q-0.5 -1.59375 -0.5 -3.46875zm11.4375 -1.640625q0.03125 -2.015625 -1.015625 -3.3125q-1.03125 -1.296875 -2.859375 -1.296875q-1.03125 0 -1.8125 0.40625q-0.78125 0.390625 -1.328125 1.03125q-0.546875 0.640625 -0.859375 1.484375q-0.296875 0.828125 -0.390625 1.6875l8.265625 0zm20.372375 -6.71875q-1.25 4.671875 -2.9375 8.96875q-1.671875 4.28125 -3.234375 7.671875l-2.6875 0q-1.5625 -3.390625 -3.25 -7.671875q-1.671875 -4.296875 -2.921875 -8.96875l3.203125 0q0.375 1.5625 0.90625 3.34375q0.53125 1.78125 1.125 3.53125q0.59375 1.734375 1.1875 3.375q0.609375 1.625 1.15625 2.90625q0.546875 -1.28125 1.15625 -2.90625q0.609375 -1.640625 1.203125 -3.375q0.59375 -1.75 1.109375 -3.53125q0.53125 -1.78125 0.921875 -3.34375l3.0625 0zm2.1421509 8.359375q0 -2.21875 0.640625 -3.859375q0.640625 -1.65625 1.703125 -2.734375q1.0625 -1.09375 2.4375 -1.640625q1.375 -0.546875 2.8125 -0.546875q3.359375 0 5.140625 2.109375q1.796875 2.09375 1.796875 6.375q0 0.1875 0 0.5q0 0.296875 -0.03125 0.5625l-11.390625 0q0.1875 2.59375 1.5 3.9375q1.3125 1.34375 4.109375 1.34375q1.5625 0 2.625 -0.265625q1.078125 -0.28125 1.625 -0.546875l0.421875 2.5q-0.546875 0.296875 -1.90625 0.609375q-1.359375 0.328125 -3.09375 0.328125q-2.171875 0 -3.765625 -0.65625q-1.578125 -0.65625 -2.609375 -1.8125q-1.015625 -1.15625 -1.515625 -2.734375q-0.5 -1.59375 -0.5 -3.46875zm11.4375 -1.640625q0.03125 -2.015625 -1.015625 -3.3125q-1.03125 -1.296875 -2.859375 -1.296875q-1.03125 0 -1.8125 0.40625q-0.78125 0.390625 -1.328125 1.03125q-0.546875 0.640625 -0.859375 1.484375q-0.296875 0.828125 -0.390625 1.6875l8.265625 0zm7.3880615 -6.234375q1.015625 -0.265625 2.703125 -0.546875q1.703125 -0.28125 3.921875 -0.28125q1.984375 0 3.296875 0.5625q1.3125 0.546875 2.09375 1.5625q0.78125 1.0 1.09375 2.40625q0.328125 1.40625 0.328125 3.109375l0 9.34375l-2.96875 0l0 -8.703125q0 -1.53125 -0.21875 -2.625q-0.203125 -1.09375 -0.6875 -1.765625q-0.484375 -0.671875 -1.28125 -0.96875q-0.796875 -0.3125 -1.984375 -0.3125q-0.46875 0 -0.984375 0.046875q-0.515625 0.03125 -0.984375 0.078125q-0.453125 0.046875 -0.828125 0.109375q-0.359375 0.0625 -0.53125 0.09375l0 14.046875l-2.96875 0l0 -16.15625zm21.149292 -0.484375l6.296875 0l0 2.5l-6.296875 0l0 7.671875q0 1.25 0.1875 2.078125q0.203125 0.8125 0.578125 1.28125q0.390625 0.453125 0.953125 0.65625q0.578125 0.1875 1.359375 0.1875q1.34375 0 2.15625 -0.296875q0.8125 -0.3125 1.140625 -0.453125l0.5625 2.46875q-0.4375 0.234375 -1.5625 0.5625q-1.125 0.34375 -2.5625 0.34375q-1.6875 0 -2.796875 -0.4375q-1.109375 -0.4375 -1.78125 -1.296875q-0.671875 -0.859375 -0.9375 -2.125q-0.265625 -1.265625 -0.265625 -2.9375l0 -14.84375l2.96875 -0.515625l0 5.15625z" fill-rule="nonzero"></path><path fill="#000000" fill-opacity="0.0" d="m542.3963 480.31497l229.10236 0l0 47.99997l-229.10236 0z" fill-rule="nonzero"></path><path fill="#000000" d="m557.8338 517.00244q1.8125 0 2.6875 -0.484375q0.890625 -0.484375 0.890625 -1.53125q0 -1.09375 -0.875 -1.734375q-0.859375 -0.640625 -2.84375 -1.4374695q-0.953125 -0.390625 -1.84375 -0.78125q-0.875 -0.40625 -1.515625 -0.9375q-0.640625 -0.546875 -1.03125 -1.3125q-0.375 -0.78125 -0.375 -1.890625q0 -2.21875 1.625 -3.515625q1.640625 -1.296875 4.453125 -1.296875q0.703125 0 1.40625 0.09375q0.71875 0.078125 1.3125 0.1875q0.609375 0.109375 1.078125 0.234375q0.46875 0.125 0.71875 0.234375l-0.546875 2.546875q-0.46875 -0.25 -1.5 -0.515625q-1.015625 -0.28125 -2.46875 -0.28125q-1.234375 0 -2.171875 0.5q-0.921875 0.5 -0.921875 1.546875q0 0.546875 0.203125 0.96875q0.203125 0.40625 0.640625 0.75q0.4375 0.328125 1.078125 0.625q0.640625 0.28125 1.53125 0.609375q1.1875 0.4375 2.109375 0.875q0.9375 0.4375 1.578125 1.015625q0.65625 0.5624695 1.015625 1.3905945q0.359375 0.8125 0.359375 2.0q0 2.296875 -1.71875 3.484375q-1.71875 1.1875 -4.875 1.1875q-2.21875 0 -3.46875 -0.375q-1.234375 -0.375 -1.6875 -0.5625l0.546875 -2.5625q0.515625 0.203125 1.625 0.59375q1.125 0.375 2.984375 0.375zm23.647034 1.65625q-1.03125 0.265625 -2.71875 0.546875q-1.671875 0.296875 -3.875 0.296875q-1.921875 0 -3.234375 -0.5625q-1.3125 -0.5625 -2.109375 -1.578125q-0.796875 -1.03125 -1.15625 -2.421875q-0.34375 -1.390625 -0.34375 -3.0937195l0 -9.34375l2.96875 0l0 8.703125q0 3.0468445 0.953125 4.3593445q0.96875 1.3125 3.234375 1.3125q0.484375 0 1.0 -0.03125q0.515625 -0.046875 0.953125 -0.09375q0.453125 -0.046875 0.8125 -0.09375q0.375 -0.046875 0.53125 -0.109375l0 -14.0468445l2.984375 0l0 16.15622zm12.352417 0.875q-2.015625 0 -3.546875 -0.640625q-1.515625 -0.640625 -2.5625 -1.796875q-1.03125 -1.15625 -1.546875 -2.734375q-0.515625 -1.59375 -0.515625 -3.4999695q0 -1.921875 0.5625 -3.515625q0.5625 -1.609375 1.578125 -2.78125q1.03125 -1.171875 2.515625 -1.828125q1.5 -0.65625 3.3125 -0.65625q1.125 0 2.234375 0.203125q1.125 0.1875 2.15625 0.609375l-0.671875 2.515625q-0.671875 -0.3125 -1.5625 -0.5q-0.875 -0.203125 -1.859375 -0.203125q-2.5 0 -3.828125 1.578125q-1.328125 1.5625 -1.328125 4.578125q0 1.3437195 0.296875 2.4687195q0.3125 1.109375 0.96875 1.90625q0.65625 0.796875 1.671875 1.234375q1.03125 0.4375 2.5 0.4375q1.1875 0 2.140625 -0.21875q0.96875 -0.234375 1.515625 -0.484375l0.40625 2.484375q-0.25 0.171875 -0.734375 0.3125q-0.46875 0.140625 -1.078125 0.25q-0.609375 0.109375 -1.296875 0.1875q-0.6875 0.09375 -1.328125 0.09375zm14.880066 0q-2.015625 0 -3.546875 -0.640625q-1.515625 -0.640625 -2.5625 -1.796875q-1.03125 -1.15625 -1.546875 -2.734375q-0.515625 -1.59375 -0.515625 -3.4999695q0 -1.921875 0.5625 -3.515625q0.5625 -1.609375 1.578125 -2.78125q1.03125 -1.171875 2.515625 -1.828125q1.5 -0.65625 3.3125 -0.65625q1.125 0 2.234375 0.203125q1.125 0.1875 2.15625 0.609375l-0.671875 2.515625q-0.671875 -0.3125 -1.5625 -0.5q-0.875 -0.203125 -1.859375 -0.203125q-2.5 0 -3.828125 1.578125q-1.328125 1.5625 -1.328125 4.578125q0 1.3437195 0.296875 2.4687195q0.3125 1.109375 0.96875 1.90625q0.65625 0.796875 1.671875 1.234375q1.03125 0.4375 2.5 0.4375q1.1875 0 2.140625 -0.21875q0.96875 -0.234375 1.515625 -0.484375l0.40625 2.484375q-0.25 0.171875 -0.734375 0.3125q-0.46875 0.140625 -1.078125 0.25q-0.609375 0.109375 -1.296875 0.1875q-0.6875 0.09375 -1.328125 0.09375zm6.70813 -8.6718445q0 -2.21875 0.640625 -3.859375q0.640625 -1.65625 1.703125 -2.734375q1.0625 -1.09375 2.4375 -1.640625q1.375 -0.546875 2.8125 -0.546875q3.359375 0 5.140625 2.109375q1.796875 2.09375 1.796875 6.375q0 0.1875 0 0.5q0 0.296875 -0.03125 0.5625l-11.390625 0q0.1875 2.5937195 1.5 3.9374695q1.3125 1.34375 4.109375 1.34375q1.5625 0 2.625 -0.265625q1.078125 -0.28125 1.625 -0.546875l0.421875 2.5q-0.546875 0.296875 -1.90625 0.609375q-1.359375 0.328125 -3.09375 0.328125q-2.171875 0 -3.765625 -0.65625q-1.578125 -0.65625 -2.609375 -1.8125q-1.015625 -1.15625 -1.515625 -2.734375q-0.5 -1.59375 -0.5 -3.4687195zm11.4375 -1.640625q0.03125 -2.015625 -1.015625 -3.3125q-1.03125 -1.296875 -2.859375 -1.296875q-1.03125 0 -1.8125 0.40625q-0.78125 0.390625 -1.328125 1.03125q-0.546875 0.640625 -0.859375 1.484375q-0.296875 0.828125 -0.390625 1.6875l8.265625 0zm11.263062 7.7812195q1.8125 0 2.6875 -0.484375q0.890625 -0.484375 0.890625 -1.53125q0 -1.09375 -0.875 -1.734375q-0.859375 -0.640625 -2.84375 -1.4374695q-0.953125 -0.390625 -1.84375 -0.78125q-0.875 -0.40625 -1.515625 -0.9375q-0.640625 -0.546875 -1.03125 -1.3125q-0.375 -0.78125 -0.375 -1.890625q0 -2.21875 1.625 -3.515625q1.640625 -1.296875 4.453125 -1.296875q0.703125 0 1.40625 0.09375q0.71875 0.078125 1.3125 0.1875q0.609375 0.109375 1.078125 0.234375q0.46875 0.125 0.71875 0.234375l-0.546875 2.546875q-0.46875 -0.25 -1.5 -0.515625q-1.015625 -0.28125 -2.46875 -0.28125q-1.234375 0 -2.171875 0.5q-0.921875 0.5 -0.921875 1.546875q0 0.546875 0.203125 0.96875q0.203125 0.40625 0.640625 0.75q0.4375 0.328125 1.078125 0.625q0.640625 0.28125 1.53125 0.609375q1.1875 0.4375 2.109375 0.875q0.9375 0.4375 1.578125 1.015625q0.65625 0.5624695 1.015625 1.3905945q0.359375 0.8125 0.359375 2.0q0 2.296875 -1.71875 3.484375q-1.71875 1.1875 -4.875 1.1875q-2.21875 0 -3.46875 -0.375q-1.234375 -0.375 -1.6875 -0.5625l0.546875 -2.5625q0.515625 0.203125 1.625 0.59375q1.125 0.375 2.984375 0.375zm14.272034 0q1.8125 0 2.6875 -0.484375q0.890625 -0.484375 0.890625 -1.53125q0 -1.09375 -0.875 -1.734375q-0.859375 -0.640625 -2.84375 -1.4374695q-0.953125 -0.390625 -1.84375 -0.78125q-0.875 -0.40625 -1.515625 -0.9375q-0.640625 -0.546875 -1.03125 -1.3125q-0.375 -0.78125 -0.375 -1.890625q0 -2.21875 1.625 -3.515625q1.640625 -1.296875 4.453125 -1.296875q0.703125 0 1.40625 0.09375q0.71875 0.078125 1.3125 0.1875q0.609375 0.109375 1.078125 0.234375q0.46875 0.125 0.71875 0.234375l-0.546875 2.546875q-0.46875 -0.25 -1.5 -0.515625q-1.015625 -0.28125 -2.46875 -0.28125q-1.234375 0 -2.171875 0.5q-0.921875 0.5 -0.921875 1.546875q0 0.546875 0.203125 0.96875q0.203125 0.40625 0.640625 0.75q0.4375 0.328125 1.078125 0.625q0.640625 0.28125 1.53125 0.609375q1.1875 0.4375 2.109375 0.875q0.9375 0.4375 1.578125 1.015625q0.65625 0.5624695 1.015625 1.3905945q0.359375 0.8125 0.359375 2.0q0 2.296875 -1.71875 3.484375q-1.71875 1.1875 -4.875 1.1875q-2.21875 0 -3.46875 -0.375q-1.234375 -0.375 -1.6875 -0.5625l0.546875 -2.5625q0.515625 0.203125 1.625 0.59375q1.125 0.375 2.984375 0.375zm16.851562 -6.1405945q0 -2.21875 0.640625 -3.859375q0.640625 -1.65625 1.703125 -2.734375q1.0625 -1.09375 2.4375 -1.640625q1.375 -0.546875 2.8125 -0.546875q3.359375 0 5.140625 2.109375q1.796875 2.09375 1.796875 6.375q0 0.1875 0 0.5q0 0.296875 -0.03125 0.5625l-11.390625 0q0.1875 2.5937195 1.5 3.9374695q1.3125 1.34375 4.109375 1.34375q1.5625 0 2.625 -0.265625q1.078125 -0.28125 1.625 -0.546875l0.421875 2.5q-0.546875 0.296875 -1.90625 0.609375q-1.359375 0.328125 -3.09375 0.328125q-2.171875 0 -3.765625 -0.65625q-1.578125 -0.65625 -2.609375 -1.8125q-1.015625 -1.15625 -1.515625 -2.734375q-0.5 -1.59375 -0.5 -3.4687195zm11.4375 -1.640625q0.03125 -2.015625 -1.015625 -3.3125q-1.03125 -1.296875 -2.859375 -1.296875q-1.03125 0 -1.8125 0.40625q-0.78125 0.390625 -1.328125 1.03125q-0.546875 0.640625 -0.859375 1.484375q-0.296875 0.828125 -0.390625 1.6875l8.265625 0zm20.372375 -6.71875q-1.25 4.671875 -2.9375 8.96875q-1.671875 4.2812195 -3.234375 7.6718445l-2.6875 0q-1.5625 -3.390625 -3.25 -7.6718445q-1.671875 -4.296875 -2.921875 -8.96875l3.203125 0q0.375 1.5625 0.90625 3.34375q0.53125 1.78125 1.125 3.53125q0.59375 1.734375 1.1875 3.3749695q0.609375 1.625 1.15625 2.90625q0.546875 -1.28125 1.15625 -2.90625q0.609375 -1.6405945 1.203125 -3.3749695q0.59375 -1.75 1.109375 -3.53125q0.53125 -1.78125 0.921875 -3.34375l3.0625 0zm2.1421509 8.359375q0 -2.21875 0.640625 -3.859375q0.640625 -1.65625 1.703125 -2.734375q1.0625 -1.09375 2.4375 -1.640625q1.375 -0.546875 2.8125 -0.546875q3.359375 0 5.140625 2.109375q1.796875 2.09375 1.796875 6.375q0 0.1875 0 0.5q0 0.296875 -0.03125 0.5625l-11.390625 0q0.1875 2.5937195 1.5 3.9374695q1.3125 1.34375 4.109375 1.34375q1.5625 0 2.625 -0.265625q1.078125 -0.28125 1.625 -0.546875l0.421875 2.5q-0.546875 0.296875 -1.90625 0.609375q-1.359375 0.328125 -3.09375 0.328125q-2.171875 0 -3.765625 -0.65625q-1.578125 -0.65625 -2.609375 -1.8125q-1.015625 -1.15625 -1.515625 -2.734375q-0.5 -1.59375 -0.5 -3.4687195zm11.4375 -1.640625q0.03125 -2.015625 -1.015625 -3.3125q-1.03125 -1.296875 -2.859375 -1.296875q-1.03125 0 -1.8125 0.40625q-0.78125 0.390625 -1.328125 1.03125q-0.546875 0.640625 -0.859375 1.484375q-0.296875 0.828125 -0.390625 1.6875l8.265625 0zm7.3880615 -6.234375q1.015625 -0.265625 2.703125 -0.546875q1.703125 -0.28125 3.921875 -0.28125q1.984375 0 3.296875 0.5625q1.3125 0.546875 2.09375 1.5625q0.78125 1.0 1.09375 2.40625q0.328125 1.40625 0.328125 3.109375l0 9.3437195l-2.96875 0l0 -8.7030945q0 -1.53125 -0.21875 -2.625q-0.203125 -1.09375 -0.6875 -1.765625q-0.484375 -0.671875 -1.28125 -0.96875q-0.796875 -0.3125 -1.984375 -0.3125q-0.46875 0 -0.984375 0.046875q-0.515625 0.03125 -0.984375 0.078125q-0.453125 0.046875 -0.828125 0.109375q-0.359375 0.0625 -0.53125 0.09375l0 14.0468445l-2.96875 0l0 -16.15622zm21.149292 -0.484375l6.296875 0l0 2.5l-6.296875 0l0 7.6718445q0 1.25 0.1875 2.078125q0.203125 0.8125 0.578125 1.28125q0.390625 0.453125 0.953125 0.65625q0.578125 0.1875 1.359375 0.1875q1.34375 0 2.15625 -0.296875q0.8125 -0.3125 1.140625 -0.453125l0.5625 2.46875q-0.4375 0.234375 -1.5625 0.5625q-1.125 0.34375 -2.5625 0.34375q-1.6875 0 -2.796875 -0.4375q-1.109375 -0.4375 -1.78125 -1.296875q-0.671875 -0.859375 -0.9375 -2.125q-0.265625 -1.265625 -0.265625 -2.9375l0 -14.8437195l2.96875 -0.515625l0 5.15625z" fill-rule="nonzero"></path><path fill="#000000" fill-opacity="0.0" d="m550.0184 548.5827l213.85828 0l0 42.078735l-213.85828 0z" fill-rule="nonzero"></path><path fill="#000000" d="m560.6434 579.1296q0 -2.21875 0.640625 -3.859375q0.640625 -1.65625 1.703125 -2.734375q1.0625 -1.09375 2.4375 -1.640625q1.375 -0.546875 2.8125 -0.546875q3.359375 0 5.140625 2.109375q1.796875 2.09375 1.796875 6.375q0 0.1875 0 0.5q0 0.296875 -0.03125 0.5625l-11.390625 0q0.1875 2.59375 1.5 3.9375q1.3125 1.34375 4.109375 1.34375q1.5625 0 2.625 -0.265625q1.078125 -0.28125 1.625 -0.546875l0.421875 2.5q-0.546875 0.296875 -1.90625 0.609375q-1.359375 0.328125 -3.09375 0.328125q-2.171875 0 -3.765625 -0.65625q-1.578125 -0.65625 -2.609375 -1.8125q-1.015625 -1.15625 -1.515625 -2.734375q-0.5 -1.59375 -0.5 -3.46875zm11.4375 -1.640625q0.03125 -2.015625 -1.015625 -3.3125q-1.03125 -1.296875 -2.859375 -1.296875q-1.03125 0 -1.8125 0.40625q-0.78125 0.390625 -1.328125 1.03125q-0.546875 0.640625 -0.859375 1.484375q-0.296875 0.828125 -0.390625 1.6875l8.265625 0zm13.528687 -7.0625q0.390625 0 0.875 0.046875q0.5 0.046875 0.984375 0.125q0.484375 0.078125 0.875 0.15625q0.40625 0.078125 0.59375 0.140625l-0.515625 2.59375q-0.34375 -0.125 -1.171875 -0.296875q-0.8125 -0.1875 -2.09375 -0.1875q-0.828125 0 -1.640625 0.1875q-0.8125 0.171875 -1.078125 0.234375l0 13.984375l-2.96875 0l0 -15.9375q1.046875 -0.375 2.609375 -0.703125q1.578125 -0.34375 3.53125 -0.34375zm12.35199 0q0.390625 0 0.875 0.046875q0.5 0.046875 0.984375 0.125q0.484375 0.078125 0.875 0.15625q0.40625 0.078125 0.59375 0.140625l-0.515625 2.59375q-0.34375 -0.125 -1.171875 -0.296875q-0.8125 -0.1875 -2.09375 -0.1875q-0.828125 0 -1.640625 0.1875q-0.8125 0.171875 -1.078125 0.234375l0 13.984375l-2.96875 0l0 -15.9375q1.046875 -0.375 2.609375 -0.703125q1.578125 -0.34375 3.53125 -0.34375zm20.898926 8.671875q0 1.96875 -0.578125 3.578125q-0.578125 1.59375 -1.625 2.75q-1.03125 1.15625 -2.46875 1.78125q-1.4375 0.625 -3.140625 0.625q-1.6875 0 -3.140625 -0.625q-1.4375 -0.625 -2.484375 -1.78125q-1.03125 -1.15625 -1.609375 -2.75q-0.578125 -1.609375 -0.578125 -3.578125q0 -1.953125 0.578125 -3.5625q0.578125 -1.625 1.609375 -2.78125q1.046875 -1.15625 2.484375 -1.78125q1.453125 -0.625 3.140625 -0.625q1.703125 0 3.140625 0.625q1.4375 0.625 2.46875 1.78125q1.046875 1.15625 1.625 2.78125q0.578125 1.609375 0.578125 3.5625zm-3.109375 0q0 -2.828125 -1.265625 -4.46875q-1.265625 -1.65625 -3.4375 -1.65625q-2.171875 0 -3.4375 1.65625q-1.265625 1.640625 -1.265625 4.46875q0 2.8125 1.265625 4.46875q1.265625 1.640625 3.4375 1.640625q2.171875 0 3.4375 -1.640625q1.265625 -1.65625 1.265625 -4.46875zm13.442505 -8.671875q0.390625 0 0.875 0.046875q0.5 0.046875 0.984375 0.125q0.484375 0.078125 0.875 0.15625q0.40625 0.078125 0.59375 0.140625l-0.515625 2.59375q-0.34375 -0.125 -1.171875 -0.296875q-0.8125 -0.1875 -2.09375 -0.1875q-0.828125 0 -1.640625 0.1875q-0.8125 0.171875 -1.078125 0.234375l0 13.984375l-2.96875 0l0 -15.9375q1.046875 -0.375 2.609375 -0.703125q1.578125 -0.34375 3.53125 -0.34375zm12.665894 8.703125q0 -2.21875 0.640625 -3.859375q0.640625 -1.65625 1.703125 -2.734375q1.0625 -1.09375 2.4375 -1.640625q1.375 -0.546875 2.8125 -0.546875q3.359375 0 5.140625 2.109375q1.796875 2.09375 1.796875 6.375q0 0.1875 0 0.5q0 0.296875 -0.03125 0.5625l-11.390625 0q0.1875 2.59375 1.5 3.9375q1.3125 1.34375 4.109375 1.34375q1.5625 0 2.625 -0.265625q1.078125 -0.28125 1.625 -0.546875l0.421875 2.5q-0.546875 0.296875 -1.90625 0.609375q-1.359375 0.328125 -3.09375 0.328125q-2.171875 0 -3.765625 -0.65625q-1.578125 -0.65625 -2.609375 -1.8125q-1.015625 -1.15625 -1.515625 -2.734375q-0.5 -1.59375 -0.5 -3.46875zm11.4375 -1.640625q0.03125 -2.015625 -1.015625 -3.3125q-1.03125 -1.296875 -2.859375 -1.296875q-1.03125 0 -1.8125 0.40625q-0.78125 0.390625 -1.328125 1.03125q-0.546875 0.640625 -0.859375 1.484375q-0.296875 0.828125 -0.390625 1.6875l8.265625 0zm20.372437 -6.71875q-1.25 4.671875 -2.9375 8.96875q-1.671875 4.28125 -3.234375 7.671875l-2.6875 0q-1.5625 -3.390625 -3.25 -7.671875q-1.671875 -4.296875 -2.921875 -8.96875l3.203125 0q0.375 1.5625 0.90625 3.34375q0.53125 1.78125 1.125 3.53125q0.59375 1.734375 1.1875 3.375q0.609375 1.625 1.15625 2.90625q0.546875 -1.28125 1.15625 -2.90625q0.609375 -1.640625 1.203125 -3.375q0.59375 -1.75 1.109375 -3.53125q0.53125 -1.78125 0.921875 -3.34375l3.0625 0zm2.1421509 8.359375q0 -2.21875 0.640625 -3.859375q0.640625 -1.65625 1.703125 -2.734375q1.0625 -1.09375 2.4375 -1.640625q1.375 -0.546875 2.8125 -0.546875q3.359375 0 5.140625 2.109375q1.796875 2.09375 1.796875 6.375q0 0.1875 0 0.5q0 0.296875 -0.03125 0.5625l-11.390625 0q0.1875 2.59375 1.5 3.9375q1.3125 1.34375 4.109375 1.34375q1.5625 0 2.625 -0.265625q1.078125 -0.28125 1.625 -0.546875l0.421875 2.5q-0.546875 0.296875 -1.90625 0.609375q-1.359375 0.328125 -3.09375 0.328125q-2.171875 0 -3.765625 -0.65625q-1.578125 -0.65625 -2.609375 -1.8125q-1.015625 -1.15625 -1.515625 -2.734375q-0.5 -1.59375 -0.5 -3.46875zm11.4375 -1.640625q0.03125 -2.015625 -1.015625 -3.3125q-1.03125 -1.296875 -2.859375 -1.296875q-1.03125 0 -1.8125 0.40625q-0.78125 0.390625 -1.328125 1.03125q-0.546875 0.640625 -0.859375 1.484375q-0.296875 0.828125 -0.390625 1.6875l8.265625 0zm7.3880005 -6.234375q1.015625 -0.265625 2.703125 -0.546875q1.703125 -0.28125 3.921875 -0.28125q1.984375 0 3.296875 0.5625q1.3125 0.546875 2.09375 1.5625q0.78125 1.0 1.09375 2.40625q0.328125 1.40625 0.328125 3.109375l0 9.34375l-2.96875 0l0 -8.703125q0 -1.53125 -0.21875 -2.625q-0.203125 -1.09375 -0.6875 -1.765625q-0.484375 -0.671875 -1.28125 -0.96875q-0.796875 -0.3125 -1.984375 -0.3125q-0.46875 0 -0.984375 0.046875q-0.515625 0.03125 -0.984375 0.078125q-0.453125 0.046875 -0.828125 0.109375q-0.359375 0.0625 -0.53125 0.09375l0 14.046875l-2.96875 0l0 -16.15625zm21.149292 -0.484375l6.296875 0l0 2.5l-6.296875 0l0 7.671875q0 1.25 0.1875 2.078125q0.203125 0.8125 0.578125 1.28125q0.390625 0.453125 0.953125 0.65625q0.578125 0.1875 1.359375 0.1875q1.34375 0 2.15625 -0.296875q0.8125 -0.3125 1.140625 -0.453125l0.5625 2.46875q-0.4375 0.234375 -1.5625 0.5625q-1.125 0.34375 -2.5625 0.34375q-1.6875 0 -2.796875 -0.4375q-1.109375 -0.4375 -1.78125 -1.296875q-0.671875 -0.859375 -0.9375 -2.125q-0.265625 -1.265625 -0.265625 -2.9375l0 -14.84375l2.96875 -0.515625l0 5.15625z" fill-rule="nonzero"></path><path fill="#000000" fill-opacity="0.0" d="m559.8898 645.21783l209.32281 0l0 48.0l-209.32281 0z" fill-rule="nonzero"></path><path fill="#000000" d="m570.5148 675.7647q0 -2.21875 0.640625 -3.859375q0.640625 -1.65625 1.703125 -2.734375q1.0625 -1.09375 2.4375 -1.640625q1.375 -0.546875 2.8125 -0.546875q3.359375 0 5.140625 2.109375q1.796875 2.09375 1.796875 6.375q0 0.1875 0 0.5q0 0.296875 -0.03125 0.5625l-11.390625 0q0.1875 2.59375 1.5 3.9375q1.3125 1.34375 4.109375 1.34375q1.5625 0 2.625 -0.265625q1.078125 -0.28125 1.625 -0.546875l0.421875 2.5q-0.546875 0.296875 -1.90625 0.609375q-1.359375 0.328125 -3.09375 0.328125q-2.171875 0 -3.765625 -0.65625q-1.578125 -0.65625 -2.609375 -1.8125q-1.015625 -1.15625 -1.515625 -2.734375q-0.5 -1.59375 -0.5 -3.46875zm11.4375 -1.640625q0.03125 -2.015625 -1.015625 -3.3125q-1.03125 -1.296875 -2.859375 -1.296875q-1.03125 0 -1.8125 0.40625q-0.78125 0.390625 -1.328125 1.03125q-0.546875 0.640625 -0.859375 1.484375q-0.296875 0.828125 -0.390625 1.6875l8.265625 0zm7.3880005 -6.234375q1.015625 -0.265625 2.703125 -0.546875q1.703125 -0.28125 3.921875 -0.28125q1.984375 0 3.296875 0.5625q1.3125 0.546875 2.09375 1.5625q0.78125 1.0 1.09375 2.40625q0.328125 1.40625 0.328125 3.109375l0 9.34375l-2.96875 0l0 -8.703125q0 -1.53125 -0.21875 -2.625q-0.203125 -1.09375 -0.6875 -1.765625q-0.484375 -0.671875 -1.28125 -0.96875q-0.796875 -0.3125 -1.984375 -0.3125q-0.46875 0 -0.984375 0.046875q-0.515625 0.03125 -0.984375 0.078125q-0.453125 0.046875 -0.828125 0.109375q-0.359375 0.0625 -0.53125 0.09375l0 14.046875l-2.96875 0l0 -16.15625zm29.118042 3.03125q-0.546875 -0.4375 -1.578125 -0.859375q-1.015625 -0.421875 -2.234375 -0.421875q-1.28125 0 -2.1875 0.46875q-0.90625 0.46875 -1.484375 1.28125q-0.578125 0.8125 -0.84375 1.9375q-0.25 1.125 -0.25 2.40625q0 2.90625 1.4375 4.5q1.4375 1.578125 3.84375 1.578125q1.21875 0 2.03125 -0.109375q0.8125 -0.125 1.265625 -0.25l0 -10.53125zm0 -11.1875l2.96875 -0.515625l0 24.34375q-1.015625 0.296875 -2.625 0.578125q-1.59375 0.296875 -3.671875 0.296875q-1.921875 0 -3.46875 -0.609375q-1.53125 -0.609375 -2.625 -1.734375q-1.078125 -1.125 -1.671875 -2.734375q-0.59375 -1.609375 -0.59375 -3.625q0 -1.921875 0.5 -3.515625q0.5 -1.609375 1.453125 -2.765625q0.96875 -1.15625 2.359375 -1.796875q1.390625 -0.640625 3.1875 -0.640625q1.4375 0 2.53125 0.390625q1.109375 0.390625 1.65625 0.734375l0 -8.40625zm14.552551 16.03125q0 -2.21875 0.640625 -3.859375q0.640625 -1.65625 1.703125 -2.734375q1.0625 -1.09375 2.4375 -1.640625q1.375 -0.546875 2.8125 -0.546875q3.359375 0 5.140625 2.109375q1.796875 2.09375 1.796875 6.375q0 0.1875 0 0.5q0 0.296875 -0.03125 0.5625l-11.390625 0q0.1875 2.59375 1.5 3.9375q1.3125 1.34375 4.109375 1.34375q1.5625 0 2.625 -0.265625q1.078125 -0.28125 1.625 -0.546875l0.421875 2.5q-0.546875 0.296875 -1.90625 0.609375q-1.359375 0.328125 -3.09375 0.328125q-2.171875 0 -3.765625 -0.65625q-1.578125 -0.65625 -2.609375 -1.8125q-1.015625 -1.15625 -1.515625 -2.734375q-0.5 -1.59375 -0.5 -3.46875zm11.4375 -1.640625q0.03125 -2.015625 -1.015625 -3.3125q-1.03125 -1.296875 -2.859375 -1.296875q-1.03125 0 -1.8125 0.40625q-0.78125 0.390625 -1.328125 1.03125q-0.546875 0.640625 -0.859375 1.484375q-0.296875 0.828125 -0.390625 1.6875l8.265625 0zm20.372437 -6.71875q-1.25 4.671875 -2.9375 8.96875q-1.671875 4.28125 -3.234375 7.671875l-2.6875 0q-1.5625 -3.390625 -3.25 -7.671875q-1.671875 -4.296875 -2.921875 -8.96875l3.203125 0q0.375 1.5625 0.90625 3.34375q0.53125 1.78125 1.125 3.53125q0.59375 1.734375 1.1875 3.375q0.609375 1.625 1.15625 2.90625q0.546875 -1.28125 1.15625 -2.90625q0.609375 -1.640625 1.203125 -3.375q0.59375 -1.75 1.109375 -3.53125q0.53125 -1.78125 0.921875 -3.34375l3.0625 0zm2.1421509 8.359375q0 -2.21875 0.640625 -3.859375q0.640625 -1.65625 1.703125 -2.734375q1.0625 -1.09375 2.4375 -1.640625q1.375 -0.546875 2.8125 -0.546875q3.359375 0 5.140625 2.109375q1.796875 2.09375 1.796875 6.375q0 0.1875 0 0.5q0 0.296875 -0.03125 0.5625l-11.390625 0q0.1875 2.59375 1.5 3.9375q1.3125 1.34375 4.109375 1.34375q1.5625 0 2.625 -0.265625q1.078125 -0.28125 1.625 -0.546875l0.421875 2.5q-0.546875 0.296875 -1.90625 0.609375q-1.359375 0.328125 -3.09375 0.328125q-2.171875 0 -3.765625 -0.65625q-1.578125 -0.65625 -2.609375 -1.8125q-1.015625 -1.15625 -1.515625 -2.734375q-0.5 -1.59375 -0.5 -3.46875zm11.4375 -1.640625q0.03125 -2.015625 -1.015625 -3.3125q-1.03125 -1.296875 -2.859375 -1.296875q-1.03125 0 -1.8125 0.40625q-0.78125 0.390625 -1.328125 1.03125q-0.546875 0.640625 -0.859375 1.484375q-0.296875 0.828125 -0.390625 1.6875l8.265625 0zm7.3880005 -6.234375q1.015625 -0.265625 2.703125 -0.546875q1.703125 -0.28125 3.921875 -0.28125q1.984375 0 3.296875 0.5625q1.3125 0.546875 2.09375 1.5625q0.78125 1.0 1.09375 2.40625q0.328125 1.40625 0.328125 3.109375l0 9.34375l-2.96875 0l0 -8.703125q0 -1.53125 -0.21875 -2.625q-0.203125 -1.09375 -0.6875 -1.765625q-0.484375 -0.671875 -1.28125 -0.96875q-0.796875 -0.3125 -1.984375 -0.3125q-0.46875 0 -0.984375 0.046875q-0.515625 0.03125 -0.984375 0.078125q-0.453125 0.046875 -0.828125 0.109375q-0.359375 0.0625 -0.53125 0.09375l0 14.046875l-2.96875 0l0 -16.15625zm21.149292 -0.484375l6.296875 0l0 2.5l-6.296875 0l0 7.671875q0 1.25 0.1875 2.078125q0.203125 0.8125 0.578125 1.28125q0.390625 0.453125 0.953125 0.65625q0.578125 0.1875 1.359375 0.1875q1.34375 0 2.15625 -0.296875q0.8125 -0.3125 1.140625 -0.453125l0.5625 2.46875q-0.4375 0.234375 -1.5625 0.5625q-1.125 0.34375 -2.5625 0.34375q-1.6875 0 -2.796875 -0.4375q-1.109375 -0.4375 -1.78125 -1.296875q-0.671875 -0.859375 -0.9375 -2.125q-0.265625 -1.265625 -0.265625 -2.9375l0 -14.84375l2.96875 -0.515625l0 5.15625z" fill-rule="nonzero"></path><path fill="#000000" fill-opacity="0.0" d="m339.6483 486.12598l88.346466 0l0 36.37799l-88.346466 0z" fill-rule="nonzero"></path><path fill="#000000" d="m358.63266 507.65723q-0.40625 -0.328125 -1.171875 -0.640625q-0.765625 -0.3125 -1.6875 -0.3125q-0.953125 0 -1.640625 0.34375q-0.6875 0.34375 -1.125 0.96875q-0.421875 0.609375 -0.625 1.453125q-0.1875 0.828125 -0.1875 1.796875q0 2.171875 1.078125 3.359375q1.09375 1.1875 2.890625 1.1875q0.90625 0 1.515625 -0.078125q0.609375 -0.078125 0.953125 -0.171875l0 -7.90625zm0 -8.390625l2.234375 -0.390625l0 18.265625q-0.765625 0.21875 -1.96875 0.421875q-1.203125 0.21875 -2.765625 0.21875q-1.4375 0 -2.59375 -0.453125q-1.140625 -0.453125 -1.96875 -1.28125q-0.8125 -0.84375 -1.265625 -2.0625q-0.4375 -1.21875 -0.4375 -2.71875q0 -1.453125 0.375 -2.640625q0.375 -1.203125 1.09375 -2.0625q0.71875 -0.875 1.765625 -1.34375q1.046875 -0.484375 2.390625 -0.484375q1.078125 0 1.90625 0.296875q0.828125 0.28125 1.234375 0.546875l0 -6.3125zm17.08908 12.0q0 1.484375 -0.4375 2.6875q-0.421875 1.1875 -1.203125 2.0625q-0.78125 0.859375 -1.859375 1.328125q-1.078125 0.46875 -2.359375 0.46875q-1.265625 0 -2.359375 -0.46875q-1.078125 -0.46875 -1.859375 -1.328125q-0.765625 -0.875 -1.203125 -2.0625q-0.4375 -1.203125 -0.4375 -2.6875q0 -1.46875 0.4375 -2.671875q0.4375 -1.21875 1.203125 -2.078125q0.78125 -0.875 1.859375 -1.34375q1.09375 -0.46875 2.359375 -0.46875q1.28125 0 2.359375 0.46875q1.078125 0.46875 1.859375 1.34375q0.78125 0.859375 1.203125 2.078125q0.4375 1.203125 0.4375 2.671875zm-2.328125 0q0 -2.125 -0.953125 -3.359375q-0.9375 -1.234375 -2.578125 -1.234375q-1.625 0 -2.578125 1.234375q-0.953125 1.234375 -0.953125 3.359375q0 2.109375 0.953125 3.34375q0.953125 1.234375 2.578125 1.234375q1.640625 0 2.578125 -1.234375q0.953125 -1.234375 0.953125 -3.34375zm5.472473 -5.890625q0.765625 -0.1875 2.03125 -0.40625q1.28125 -0.21875 2.9375 -0.21875q1.484375 0 2.46875 0.421875q0.984375 0.421875 1.5625 1.1875q0.59375 0.75 0.828125 1.8125q0.25 1.046875 0.25 2.3125l0 7.015625l-2.234375 0l0 -6.53125q0 -1.15625 -0.15625 -1.96875q-0.15625 -0.8125 -0.515625 -1.3125q-0.359375 -0.5 -0.96875 -0.734375q-0.59375 -0.234375 -1.484375 -0.234375q-0.359375 0 -0.75 0.03125q-0.375 0.015625 -0.71875 0.0625q-0.34375 0.03125 -0.625 0.078125q-0.28125 0.046875 -0.390625 0.078125l0 10.53125l-2.234375 0l0 -12.125zm13.072815 5.90625q0 -1.65625 0.484375 -2.890625q0.484375 -1.234375 1.265625 -2.046875q0.796875 -0.8125 1.828125 -1.21875q1.03125 -0.421875 2.109375 -0.421875q2.53125 0 3.875 1.578125q1.34375 1.578125 1.34375 4.78125q0 0.15625 0 0.390625q0 0.21875 -0.03125 0.40625l-8.546875 0q0.15625 1.9375 1.125 2.953125q0.984375 1.0 3.078125 1.0q1.171875 0 1.96875 -0.203125q0.8125 -0.203125 1.21875 -0.390625l0.3125 1.875q-0.40625 0.21875 -1.421875 0.453125q-1.015625 0.234375 -2.3125 0.234375q-1.640625 0 -2.828125 -0.484375q-1.1875 -0.5 -1.953125 -1.359375q-0.765625 -0.859375 -1.140625 -2.046875q-0.375 -1.1875 -0.375 -2.609375zm8.578125 -1.21875q0.015625 -1.515625 -0.765625 -2.484375q-0.78125 -0.96875 -2.140625 -0.96875q-0.765625 0 -1.359375 0.296875q-0.59375 0.296875 -1.0 0.78125q-0.40625 0.46875 -0.640625 1.09375q-0.21875 0.625 -0.296875 1.28125l6.203125 0z" fill-rule="nonzero"></path><path fill="#000000" fill-opacity="0.0" d="m196.4252 554.28345l88.346466 0l0 36.37799l-88.346466 0z" fill-rule="nonzero"></path><path fill="#000000" d="m206.64395 579.4397q0 -1.65625 0.484375 -2.890625q0.484375 -1.234375 1.265625 -2.046875q0.796875 -0.8125 1.828125 -1.21875q1.03125 -0.421875 2.109375 -0.421875q2.53125 0 3.875 1.578125q1.34375 1.578125 1.34375 4.78125q0 0.15625 0 0.390625q0 0.21875 -0.03125 0.40625l-8.546875 0q0.15625 1.9375 1.125 2.953125q0.984375 1.0 3.078125 1.0q1.171875 0 1.96875 -0.203125q0.8125 -0.203125 1.21875 -0.390625l0.3125 1.875q-0.40625 0.21875 -1.421875 0.453125q-1.015625 0.234375 -2.3125 0.234375q-1.640625 0 -2.828125 -0.484375q-1.1875 -0.5 -1.953125 -1.359375q-0.765625 -0.859375 -1.140625 -2.046875q-0.375 -1.1875 -0.375 -2.609375zm8.578125 -1.21875q0.015625 -1.515625 -0.765625 -2.484375q-0.78125 -0.96875 -2.140625 -0.96875q-0.765625 0 -1.359375 0.296875q-0.59375 0.296875 -1.0 0.78125q-0.40625 0.46875 -0.640625 1.09375q-0.21875 0.625 -0.296875 1.28125l6.203125 0zm10.15033 -5.3125q0.28125 0 0.65625 0.046875q0.375 0.03125 0.734375 0.09375q0.359375 0.0625 0.65625 0.125q0.296875 0.046875 0.453125 0.09375l-0.390625 1.953125q-0.265625 -0.09375 -0.875 -0.21875q-0.609375 -0.140625 -1.578125 -0.140625q-0.625 0 -1.234375 0.140625q-0.609375 0.125 -0.796875 0.171875l0 10.484375l-2.234375 0l0 -11.953125q0.796875 -0.28125 1.96875 -0.53125q1.171875 -0.265625 2.640625 -0.265625zm9.263977 0q0.28125 0 0.65625 0.046875q0.375 0.03125 0.734375 0.09375q0.359375 0.0625 0.65625 0.125q0.296875 0.046875 0.453125 0.09375l-0.390625 1.953125q-0.265625 -0.09375 -0.875 -0.21875q-0.609375 -0.140625 -1.578125 -0.140625q-0.625 0 -1.234375 0.140625q-0.609375 0.125 -0.796875 0.171875l0 10.484375l-2.234375 0l0 -11.953125q0.796875 -0.28125 1.96875 -0.53125q1.171875 -0.265625 2.640625 -0.265625zm15.670227 6.515625q0 1.484375 -0.4375 2.6875q-0.421875 1.1875 -1.203125 2.0625q-0.78125 0.859375 -1.859375 1.328125q-1.078125 0.46875 -2.359375 0.46875q-1.265625 0 -2.359375 -0.46875q-1.078125 -0.46875 -1.859375 -1.328125q-0.765625 -0.875 -1.203125 -2.0625q-0.4375 -1.203125 -0.4375 -2.6875q0 -1.46875 0.4375 -2.671875q0.4375 -1.21875 1.203125 -2.078125q0.78125 -0.875 1.859375 -1.34375q1.09375 -0.46875 2.359375 -0.46875q1.28125 0 2.359375 0.46875q1.078125 0.46875 1.859375 1.34375q0.78125 0.859375 1.203125 2.078125q0.4375 1.203125 0.4375 2.671875zm-2.328125 0q0 -2.125 -0.953125 -3.359375q-0.9375 -1.234375 -2.578125 -1.234375q-1.625 0 -2.578125 1.234375q-0.953125 1.234375 -0.953125 3.359375q0 2.109375 0.953125 3.34375q0.953125 1.234375 2.578125 1.234375q1.640625 0 2.578125 -1.234375q0.953125 -1.234375 0.953125 -3.34375zm10.081818 -6.515625q0.28125 0 0.65625 0.046875q0.375 0.03125 0.734375 0.09375q0.359375 0.0625 0.65625 0.125q0.296875 0.046875 0.453125 0.09375l-0.390625 1.953125q-0.265625 -0.09375 -0.875 -0.21875q-0.609375 -0.140625 -1.578125 -0.140625q-0.625 0 -1.234375 0.140625q-0.60935974 0.125 -0.79685974 0.171875l0 10.484375l-2.234375 0l0 -11.953125q0.796875 -0.28125 1.96875 -0.53125q1.1718597 -0.265625 2.6406097 -0.265625z" fill-rule="nonzero"></path></g></svg>

